<mxfile host="app.diagrams.net" modified="2024-05-16T04:19:11.846Z" agent="Mozilla/5.0 (Windows NT 10.0; Win64; x64) AppleWebKit/537.36 (KHTML, like Gecko) Chrome/124.0.0.0 Safari/537.36" etag="iMItpjpMfk_u0FXu1U9U" version="24.4.2" type="device">
  <diagram name="Page-1" id="ehe23IGDnyQGLRyL69Fk">
    <mxGraphModel dx="1059" dy="549" grid="1" gridSize="10" guides="1" tooltips="1" connect="1" arrows="1" fold="1" page="1" pageScale="1" pageWidth="827" pageHeight="1169" math="0" shadow="0">
      <root>
        <mxCell id="0" />
        <mxCell id="1" parent="0" />
        <mxCell id="4mDx-4fVDPnIyOVA0Ng8-31" value="User" style="swimlane;whiteSpace=wrap;html=1;" vertex="1" parent="1">
          <mxGeometry x="85" y="10" width="200" height="1140" as="geometry" />
        </mxCell>
        <mxCell id="4mDx-4fVDPnIyOVA0Ng8-32" value="" style="edgeStyle=orthogonalEdgeStyle;rounded=0;orthogonalLoop=1;jettySize=auto;html=1;" edge="1" parent="4mDx-4fVDPnIyOVA0Ng8-31" source="4mDx-4fVDPnIyOVA0Ng8-33" target="4mDx-4fVDPnIyOVA0Ng8-36">
          <mxGeometry relative="1" as="geometry" />
        </mxCell>
        <mxCell id="4mDx-4fVDPnIyOVA0Ng8-33" value="&lt;span data-lucid-content=&quot;{&amp;quot;t&amp;quot;:&amp;quot;User navigates to the sign up page&amp;quot;,&amp;quot;m&amp;quot;:[{&amp;quot;s&amp;quot;:0,&amp;quot;n&amp;quot;:&amp;quot;s&amp;quot;,&amp;quot;v&amp;quot;:22.22222222222222,&amp;quot;e&amp;quot;:34},{&amp;quot;s&amp;quot;:0,&amp;quot;n&amp;quot;:&amp;quot;fsp&amp;quot;,&amp;quot;v&amp;quot;:&amp;quot;ss_presetShapeStyle1_textStyle&amp;quot;,&amp;quot;e&amp;quot;:34},{&amp;quot;s&amp;quot;:0,&amp;quot;n&amp;quot;:&amp;quot;fsp2&amp;quot;,&amp;quot;v&amp;quot;:&amp;quot;ss_presetShapeStyle1_textStyle&amp;quot;,&amp;quot;e&amp;quot;:34}]}&quot; data-lucid-type=&quot;application/vnd.lucid.text&quot;&gt;&lt;span style=&quot;color: rgb(58, 65, 74);&quot;&gt;&lt;font style=&quot;font-size: 12px;&quot;&gt;User navigates to Post Question tab&lt;/font&gt;&lt;/span&gt;&lt;/span&gt;" style="rounded=1;whiteSpace=wrap;html=1;" vertex="1" parent="4mDx-4fVDPnIyOVA0Ng8-31">
          <mxGeometry x="40" y="150" width="120" height="60" as="geometry" />
        </mxCell>
        <mxCell id="4mDx-4fVDPnIyOVA0Ng8-34" value="" style="edgeStyle=orthogonalEdgeStyle;rounded=0;orthogonalLoop=1;jettySize=auto;html=1;" edge="1" parent="4mDx-4fVDPnIyOVA0Ng8-31" source="4mDx-4fVDPnIyOVA0Ng8-35" target="4mDx-4fVDPnIyOVA0Ng8-33">
          <mxGeometry relative="1" as="geometry" />
        </mxCell>
        <mxCell id="4mDx-4fVDPnIyOVA0Ng8-35" value="" style="ellipse;whiteSpace=wrap;html=1;aspect=fixed;fillColor=#000000;" vertex="1" parent="4mDx-4fVDPnIyOVA0Ng8-31">
          <mxGeometry x="75" y="50" width="50" height="50" as="geometry" />
        </mxCell>
        <mxCell id="4mDx-4fVDPnIyOVA0Ng8-36" value="User presses Create New Question" style="rounded=1;whiteSpace=wrap;html=1;" vertex="1" parent="4mDx-4fVDPnIyOVA0Ng8-31">
          <mxGeometry x="40" y="270" width="120" height="60" as="geometry" />
        </mxCell>
        <mxCell id="4mDx-4fVDPnIyOVA0Ng8-37" value="" style="edgeStyle=orthogonalEdgeStyle;rounded=0;orthogonalLoop=1;jettySize=auto;html=1;" edge="1" parent="4mDx-4fVDPnIyOVA0Ng8-31" source="4mDx-4fVDPnIyOVA0Ng8-38" target="4mDx-4fVDPnIyOVA0Ng8-39">
          <mxGeometry relative="1" as="geometry" />
        </mxCell>
        <mxCell id="4mDx-4fVDPnIyOVA0Ng8-38" value="User decides title, question content and ascribes tags" style="rounded=1;whiteSpace=wrap;html=1;" vertex="1" parent="4mDx-4fVDPnIyOVA0Ng8-31">
          <mxGeometry x="40" y="370" width="120" height="60" as="geometry" />
        </mxCell>
        <mxCell id="4mDx-4fVDPnIyOVA0Ng8-39" value="User presses the Post Question button" style="rounded=1;whiteSpace=wrap;html=1;" vertex="1" parent="4mDx-4fVDPnIyOVA0Ng8-31">
          <mxGeometry x="40" y="490" width="120" height="60" as="geometry" />
        </mxCell>
        <mxCell id="4mDx-4fVDPnIyOVA0Ng8-40" value="Program" style="swimlane;whiteSpace=wrap;html=1;" vertex="1" parent="1">
          <mxGeometry x="285" y="10" width="480" height="1140" as="geometry" />
        </mxCell>
        <mxCell id="4mDx-4fVDPnIyOVA0Ng8-41" value="" style="edgeStyle=orthogonalEdgeStyle;rounded=0;orthogonalLoop=1;jettySize=auto;html=1;" edge="1" parent="4mDx-4fVDPnIyOVA0Ng8-40" source="4mDx-4fVDPnIyOVA0Ng8-42" target="4mDx-4fVDPnIyOVA0Ng8-43">
          <mxGeometry relative="1" as="geometry" />
        </mxCell>
        <mxCell id="4mDx-4fVDPnIyOVA0Ng8-42" value="Generate question form" style="rounded=1;whiteSpace=wrap;html=1;" vertex="1" parent="4mDx-4fVDPnIyOVA0Ng8-40">
          <mxGeometry x="180" y="270" width="120" height="60" as="geometry" />
        </mxCell>
        <mxCell id="4mDx-4fVDPnIyOVA0Ng8-43" value="Display question form" style="rounded=1;whiteSpace=wrap;html=1;" vertex="1" parent="4mDx-4fVDPnIyOVA0Ng8-40">
          <mxGeometry x="180" y="370" width="120" height="60" as="geometry" />
        </mxCell>
        <mxCell id="4mDx-4fVDPnIyOVA0Ng8-44" style="edgeStyle=orthogonalEdgeStyle;rounded=0;orthogonalLoop=1;jettySize=auto;html=1;exitX=0.5;exitY=1;exitDx=0;exitDy=0;entryX=0.5;entryY=0;entryDx=0;entryDy=0;" edge="1" parent="4mDx-4fVDPnIyOVA0Ng8-40" source="4mDx-4fVDPnIyOVA0Ng8-45" target="4mDx-4fVDPnIyOVA0Ng8-48">
          <mxGeometry relative="1" as="geometry" />
        </mxCell>
        <mxCell id="4mDx-4fVDPnIyOVA0Ng8-45" value="Validate user content" style="rounded=1;whiteSpace=wrap;html=1;" vertex="1" parent="4mDx-4fVDPnIyOVA0Ng8-40">
          <mxGeometry x="180" y="490" width="120" height="60" as="geometry" />
        </mxCell>
        <mxCell id="4mDx-4fVDPnIyOVA0Ng8-46" style="edgeStyle=orthogonalEdgeStyle;rounded=0;orthogonalLoop=1;jettySize=auto;html=1;exitX=0;exitY=0.5;exitDx=0;exitDy=0;entryX=0.5;entryY=0;entryDx=0;entryDy=0;" edge="1" parent="4mDx-4fVDPnIyOVA0Ng8-40" source="4mDx-4fVDPnIyOVA0Ng8-48" target="4mDx-4fVDPnIyOVA0Ng8-50">
          <mxGeometry relative="1" as="geometry" />
        </mxCell>
        <mxCell id="4mDx-4fVDPnIyOVA0Ng8-47" style="edgeStyle=orthogonalEdgeStyle;rounded=0;orthogonalLoop=1;jettySize=auto;html=1;exitX=1;exitY=0.5;exitDx=0;exitDy=0;entryX=0.5;entryY=0;entryDx=0;entryDy=0;" edge="1" parent="4mDx-4fVDPnIyOVA0Ng8-40" source="4mDx-4fVDPnIyOVA0Ng8-48" target="4mDx-4fVDPnIyOVA0Ng8-52">
          <mxGeometry relative="1" as="geometry" />
        </mxCell>
        <mxCell id="4mDx-4fVDPnIyOVA0Ng8-104" value="" style="edgeStyle=orthogonalEdgeStyle;rounded=0;orthogonalLoop=1;jettySize=auto;html=1;" edge="1" parent="4mDx-4fVDPnIyOVA0Ng8-40" source="4mDx-4fVDPnIyOVA0Ng8-106" target="4mDx-4fVDPnIyOVA0Ng8-103">
          <mxGeometry relative="1" as="geometry" />
        </mxCell>
        <mxCell id="4mDx-4fVDPnIyOVA0Ng8-48" value="" style="rhombus;whiteSpace=wrap;html=1;" vertex="1" parent="4mDx-4fVDPnIyOVA0Ng8-40">
          <mxGeometry x="220" y="590" width="40" height="40" as="geometry" />
        </mxCell>
        <mxCell id="4mDx-4fVDPnIyOVA0Ng8-49" value="" style="edgeStyle=orthogonalEdgeStyle;rounded=0;orthogonalLoop=1;jettySize=auto;html=1;" edge="1" parent="4mDx-4fVDPnIyOVA0Ng8-40" source="4mDx-4fVDPnIyOVA0Ng8-50" target="4mDx-4fVDPnIyOVA0Ng8-56">
          <mxGeometry relative="1" as="geometry" />
        </mxCell>
        <mxCell id="4mDx-4fVDPnIyOVA0Ng8-50" value="Write post to database" style="rounded=1;whiteSpace=wrap;html=1;" vertex="1" parent="4mDx-4fVDPnIyOVA0Ng8-40">
          <mxGeometry x="35" y="690" width="120" height="60" as="geometry" />
        </mxCell>
        <mxCell id="4mDx-4fVDPnIyOVA0Ng8-102" style="edgeStyle=orthogonalEdgeStyle;rounded=0;orthogonalLoop=1;jettySize=auto;html=1;exitX=0.5;exitY=1;exitDx=0;exitDy=0;entryX=1;entryY=0.5;entryDx=0;entryDy=0;" edge="1" parent="4mDx-4fVDPnIyOVA0Ng8-40" source="4mDx-4fVDPnIyOVA0Ng8-52" target="4mDx-4fVDPnIyOVA0Ng8-58">
          <mxGeometry relative="1" as="geometry" />
        </mxCell>
        <mxCell id="4mDx-4fVDPnIyOVA0Ng8-52" value="Do not post and send user an error message" style="rounded=1;whiteSpace=wrap;html=1;" vertex="1" parent="4mDx-4fVDPnIyOVA0Ng8-40">
          <mxGeometry x="325" y="800" width="120" height="60" as="geometry" />
        </mxCell>
        <mxCell id="4mDx-4fVDPnIyOVA0Ng8-55" style="edgeStyle=orthogonalEdgeStyle;rounded=0;orthogonalLoop=1;jettySize=auto;html=1;exitX=0.5;exitY=1;exitDx=0;exitDy=0;entryX=0;entryY=0.5;entryDx=0;entryDy=0;" edge="1" parent="4mDx-4fVDPnIyOVA0Ng8-40" source="4mDx-4fVDPnIyOVA0Ng8-56" target="4mDx-4fVDPnIyOVA0Ng8-58">
          <mxGeometry relative="1" as="geometry" />
        </mxCell>
        <mxCell id="4mDx-4fVDPnIyOVA0Ng8-56" value="Set post to visible on the CodeQA site" style="rounded=1;whiteSpace=wrap;html=1;" vertex="1" parent="4mDx-4fVDPnIyOVA0Ng8-40">
          <mxGeometry x="35" y="800" width="120" height="60" as="geometry" />
        </mxCell>
        <mxCell id="4mDx-4fVDPnIyOVA0Ng8-57" style="edgeStyle=orthogonalEdgeStyle;rounded=0;orthogonalLoop=1;jettySize=auto;html=1;exitX=0.5;exitY=1;exitDx=0;exitDy=0;entryX=0.5;entryY=0;entryDx=0;entryDy=0;" edge="1" parent="4mDx-4fVDPnIyOVA0Ng8-40" source="4mDx-4fVDPnIyOVA0Ng8-58" target="4mDx-4fVDPnIyOVA0Ng8-59">
          <mxGeometry relative="1" as="geometry" />
        </mxCell>
        <mxCell id="4mDx-4fVDPnIyOVA0Ng8-58" value="" style="rhombus;whiteSpace=wrap;html=1;" vertex="1" parent="4mDx-4fVDPnIyOVA0Ng8-40">
          <mxGeometry x="220" y="990" width="40" height="40" as="geometry" />
        </mxCell>
        <mxCell id="4mDx-4fVDPnIyOVA0Ng8-59" value="" style="ellipse;whiteSpace=wrap;html=1;aspect=fixed;fillColor=#000000;" vertex="1" parent="4mDx-4fVDPnIyOVA0Ng8-40">
          <mxGeometry x="215" y="1070" width="50" height="50" as="geometry" />
        </mxCell>
        <mxCell id="4mDx-4fVDPnIyOVA0Ng8-64" value="Else" style="text;html=1;align=center;verticalAlign=middle;resizable=0;points=[];autosize=1;strokeColor=none;fillColor=none;" vertex="1" parent="4mDx-4fVDPnIyOVA0Ng8-40">
          <mxGeometry x="265" y="575" width="50" height="30" as="geometry" />
        </mxCell>
        <mxCell id="4mDx-4fVDPnIyOVA0Ng8-63" value="[Is valid]" style="text;html=1;align=center;verticalAlign=middle;resizable=0;points=[];autosize=1;strokeColor=none;fillColor=none;" vertex="1" parent="4mDx-4fVDPnIyOVA0Ng8-40">
          <mxGeometry x="150" y="575" width="70" height="30" as="geometry" />
        </mxCell>
        <mxCell id="4mDx-4fVDPnIyOVA0Ng8-100" value="Notify user their post was successful" style="rounded=1;whiteSpace=wrap;html=1;" vertex="1" parent="4mDx-4fVDPnIyOVA0Ng8-40">
          <mxGeometry x="35" y="900" width="120" height="60" as="geometry" />
        </mxCell>
        <mxCell id="4mDx-4fVDPnIyOVA0Ng8-105" style="edgeStyle=orthogonalEdgeStyle;rounded=0;orthogonalLoop=1;jettySize=auto;html=1;exitX=0.5;exitY=1;exitDx=0;exitDy=0;entryX=0.5;entryY=0;entryDx=0;entryDy=0;" edge="1" parent="4mDx-4fVDPnIyOVA0Ng8-40" source="4mDx-4fVDPnIyOVA0Ng8-103" target="4mDx-4fVDPnIyOVA0Ng8-58">
          <mxGeometry relative="1" as="geometry" />
        </mxCell>
        <mxCell id="4mDx-4fVDPnIyOVA0Ng8-103" value="Send user a notification to resubmit their question later" style="rounded=1;whiteSpace=wrap;html=1;" vertex="1" parent="4mDx-4fVDPnIyOVA0Ng8-40">
          <mxGeometry x="180" y="800" width="120" height="60" as="geometry" />
        </mxCell>
        <mxCell id="4mDx-4fVDPnIyOVA0Ng8-106" value="[System is down]" style="text;html=1;align=center;verticalAlign=middle;resizable=0;points=[];autosize=1;strokeColor=none;fillColor=none;" vertex="1" parent="4mDx-4fVDPnIyOVA0Ng8-40">
          <mxGeometry x="185" y="690" width="110" height="30" as="geometry" />
        </mxCell>
        <mxCell id="4mDx-4fVDPnIyOVA0Ng8-109" style="rounded=0;orthogonalLoop=1;jettySize=auto;html=1;exitX=0.5;exitY=1;exitDx=0;exitDy=0;entryX=0.508;entryY=-0.181;entryDx=0;entryDy=0;entryPerimeter=0;startArrow=none;startFill=0;endArrow=none;endFill=0;" edge="1" parent="4mDx-4fVDPnIyOVA0Ng8-40" source="4mDx-4fVDPnIyOVA0Ng8-48" target="4mDx-4fVDPnIyOVA0Ng8-106">
          <mxGeometry relative="1" as="geometry" />
        </mxCell>
        <mxCell id="4mDx-4fVDPnIyOVA0Ng8-60" style="edgeStyle=orthogonalEdgeStyle;rounded=0;orthogonalLoop=1;jettySize=auto;html=1;exitX=1;exitY=0.5;exitDx=0;exitDy=0;" edge="1" parent="1" source="4mDx-4fVDPnIyOVA0Ng8-36" target="4mDx-4fVDPnIyOVA0Ng8-42">
          <mxGeometry relative="1" as="geometry" />
        </mxCell>
        <mxCell id="4mDx-4fVDPnIyOVA0Ng8-61" style="edgeStyle=orthogonalEdgeStyle;rounded=0;orthogonalLoop=1;jettySize=auto;html=1;exitX=0;exitY=0.5;exitDx=0;exitDy=0;entryX=1;entryY=0.5;entryDx=0;entryDy=0;" edge="1" parent="1" source="4mDx-4fVDPnIyOVA0Ng8-43" target="4mDx-4fVDPnIyOVA0Ng8-38">
          <mxGeometry relative="1" as="geometry" />
        </mxCell>
        <mxCell id="4mDx-4fVDPnIyOVA0Ng8-62" style="edgeStyle=orthogonalEdgeStyle;rounded=0;orthogonalLoop=1;jettySize=auto;html=1;exitX=1;exitY=0.5;exitDx=0;exitDy=0;" edge="1" parent="1" source="4mDx-4fVDPnIyOVA0Ng8-39" target="4mDx-4fVDPnIyOVA0Ng8-45">
          <mxGeometry relative="1" as="geometry" />
        </mxCell>
      </root>
    </mxGraphModel>
  </diagram>
</mxfile>
